<?xml version="1.0" encoding="UTF-8" standalone="no"?>
<svg
   version="1.0"
   viewBox="0 0 100 30"
   preserveAspectRatio="xMidYMid meet"
   id="svg62"
   className="Logo"
   >
   <tittle>Maicol Manuel Orosco Vasquez</tittle>
  <g
     id="g1043"
     transform="matrix(0.39692439,0,0,0.39692439,0.8568142,-0.90163954)">
    <path
       d="m 127.21183,16.989821 c -1.23863,1.238632 -8.25755,11.147694 -15.4141,22.020134 l -13.143259,19.81812 h 8.119919 8.05111 l 3.78471,-6.3996 c 3.19966,-5.43513 4.10743,-6.86294 6.62896,-11.59388 1.93268,-3.62616 1.98563,-3.623312 3.03083,-5.690482 3.92952,-7.77172 4.57782,-7.994295 6.96319,-3.523515 3.14491,5.60092 1.82484,3.421157 5.87885,10.279507 l 1.92676,3.16539 h 7.4318 c 5.78028,0 7.36298,-0.20644 6.95011,-0.89457 -0.27526,-0.41288 -4.47285,-6.74367 -9.35856,-14.03784 -9.35856,-14.106639 -10.666,-15.345271 -15.68935,-15.345271 -2.20202,0 -3.23421,0.48169 -5.16097,2.202007 z"
       id="path4"
       className="logo-fill-1"
       />
    <g
       id="g210"
       className="logo-fill-2" >
      <path
         d="m 61.770746,15.063065 c -1.16982,0.550503 -2.546078,1.926756 -3.165395,3.2342 -0.894568,1.78914 -6.881292,21.60726 -11.973448,39.29218 -0.344065,1.10101 0.275252,1.23863 6.193163,1.23863 h 6.537227 l 0.688129,-2.61489 c 0.412878,-1.37625 1.926762,-7.29417 3.440647,-13.14327 1.513884,-5.78028 2.890142,-10.666 3.027768,-10.87243 0.206439,-0.13763 3.303021,5.43621 6.950105,12.38632 7.500611,14.31309 8.670429,15.4829 14.244276,14.72596 4.059958,-0.5505 5.160969,-1.99557 12.317512,-15.89578 3.2342,-6.26198 6.05554,-11.42295 6.26197,-11.42295 0.20644,0 0.82576,1.72033 1.30745,3.78471 l 0.89457,3.78471 4.47284,-6.60603 4.40402,-6.60605 -0.89457,-3.2342 c -1.37625,-5.092157 -2.61488,-6.950103 -5.29859,-8.119923 -3.1654,-1.307445 -6.95011,-0.344064 -9.01449,2.339632 -0.82576,0.963381 -4.610469,7.431801 -8.463988,14.313091 l -7.018922,12.59276 -3.50946,-6.33079 C 74.914013,23.045355 71.679806,17.677955 70.234735,16.301697 68.23916,14.443749 64.454449,13.893246 61.770746,15.063065 Z"
         id="path2"
         className="logo-fill-2"/>
      <path
         d="m 122.87662,50.570535 c -1.65152,2.61488 -2.82133,5.09215 -2.54608,5.50503 0.20644,0.34406 1.99558,1.16982 3.99115,1.85794 2.95895,0.96339 7.15654,1.16983 23.4652,1.44508 l 19.88694,0.27525 -1.51389,-2.33964 c -0.82575,-1.23863 -2.47726,-3.85352 -3.71589,-5.8491 l -2.20202,-3.57827 -13.8314,-0.0688 c -10.25312,0 -14.72596,-0.27525 -17.20322,-1.0322 -1.85795,-0.5505 -3.37183,-1.03219 -3.37183,-0.96337 0,0 -1.30745,2.1332 -2.95896,4.74809 z"
         id="path8"
         className="logo-fill-2" />
    </g>
    <g
       id="g206"
       className="logo-fill-1">
      <path
         d="m 34.519722,8.2675031 c -0.08729,0.01246 -0.349137,0.05612 -0.592287,0.09352 -0.997537,0.162096 -2.325501,0.73568 -3.167172,1.371609 C 30.330077,10.056832 10.622536,29.053625 8.1411699,31.541225 c -1.016239,1.02248 -1.440192,1.49007 -1.733217,1.93272 -0.716978,1.08483 -1.228216,2.33174 -1.477599,3.62231 -0.1745693,0.89154 -0.1558653,2.6684 0.03119,3.55372 0.349136,1.63969 1.022473,3.04871 2.05118,4.28316 0.180806,0.21198 4.4265631,4.32057 9.4454041,9.12744 5.012612,4.8131 10.212259,9.82571 11.546461,11.15368 2.942729,2.91778 3.391619,3.25446 5.025084,3.77192 3.503837,1.10352 7.356816,-0.51123 9.046388,-3.80933 0.579817,-1.12223 0.829201,-2.21952 0.822967,-3.54748 -0.01246,-1.70205 -0.505005,-3.1734 -1.521241,-4.52632 -0.168335,-0.22444 -4.102363,-4.18341 -8.747129,-8.80324 -6.51515,-6.47773 -8.479044,-8.46657 -8.591267,-8.69725 -0.205743,-0.41148 -0.205743,-1.15963 -0.0062,-1.59606 0.112219,-0.24938 1.6771,-1.83919 8.597499,-8.72842 5.53008,-5.51138 8.585028,-8.59126 8.828179,-8.91546 1.010002,-1.36537 1.552411,-3.179649 1.452658,-4.900383 C 42.805541,13.510795 42.038686,11.808745 40.648371,10.430906 39.600962,9.3959661 38.304168,8.6976891 36.826567,8.3797261 36.38391,8.2862061 34.850204,8.2113911 34.519771,8.2675031 Z"
         id="path99"
         className="logo-fill-1"
         />
      <path
         d="m 211.39103,69.705645 c 0.0868,-0.0152 0.34718,-0.0671 0.58903,-0.11224 0.9919,-0.19361 2.30103,-0.80897 3.12212,-1.47125 0.4197,-0.33767 19.51555,-19.94925 21.91687,-22.51421 0.98333,-1.05415 1.39226,-1.53494 1.67111,-1.98666 0.68226,-1.107 1.15374,-2.36947 1.36211,-3.66729 0.14624,-0.89663 0.0712,-2.672 -0.14373,-3.55095 -0.4009,-1.62781 -1.11854,-3.01479 -2.18584,-4.21603 -0.18743,-0.20614 -4.56121,-4.17817 -9.72981,-8.82364 -5.16258,-4.65188 -10.51841,-9.497256 -11.89401,-10.782295 -3.03368,-2.8230919 -3.49302,-3.1453809 -5.14205,-3.6108369 -3.53704,-0.991967 -7.33693,0.74404 -8.92118,4.0940019 -0.54397,1.140033 -0.75847,2.244677 -0.71017,3.571768 0.0665,1.700812 0.60529,3.155822 1.66387,4.475862 0.17536,0.21899 4.23284,4.05135 9.02162,8.52172 6.71709,6.26808 8.74301,8.1937 8.86248,8.42072 0.21868,0.40475 0.24238,1.15252 0.0571,1.59505 -0.10426,0.2528 -1.61799,1.89139 -8.31667,8.9964 -5.35271,5.68381 -8.30855,8.85892 -8.54131,9.19066 -0.96624,1.39667 -1.45091,3.22723 -1.29669,4.94394 0.16776,1.94709 0.98814,3.624 2.42141,4.9571 1.07967,1.00124 2.39794,1.65809 3.88486,1.92908 0.4454,0.0794 1.98071,0.10564 2.3092,0.0391 z"
         id="path99-8"
         className="logo-fill-1"
          />
      <path
         d="m 173.21284,62.248328 c -0.61368,4.205999 0.76999,5.64714 2.85413,7.011063 0.67832,0.430216 2.1969,0.51652 3.15534,0.174641 2.03076,-0.74623 3.63362,-1.17632 5.13988,-4.125294 l 0.6501,-1.250821 7.20198,-23.905378 7.20196,-23.905385 0.1341,-1.352213 c 0.33364,-3.158175 -0.82895,-4.110478 -2.21255,-5.5912624 -0.76647,-0.8080818 -2.76314,-1.2004225 -3.90361,-0.7670523 -2.04283,0.7862792 -3.1984,1.0967593 -5.11573,4.0451947 l -0.61998,1.150716 -7.16407,23.700733 c -5.6507,18.677447 -7.18989,23.865338 -7.32155,24.815058 z"
         id="path189"
         className="logo-fill-1"
          />
    </g>
  </g>
</svg>
